<mxfile host="65bd71144e">
    <diagram id="8mQ9W1NJraT2GF8KGVuk" name="Página-1">
        <mxGraphModel dx="1312" dy="604" grid="0" gridSize="10" guides="1" tooltips="1" connect="1" arrows="1" fold="1" page="1" pageScale="1" pageWidth="827" pageHeight="1169" math="0" shadow="0">
            <root>
                <mxCell id="0"/>
                <mxCell id="1" parent="0"/>
                <mxCell id="79" value="CORREIO ELEGANTE" style="text;align=center;html=1;verticalAlign=middle;whiteSpace=wrap;rounded=0;glass=0;fillColor=#f5f5f5;fontColor=#333333;strokeColor=#666666;fontStyle=1" vertex="1" parent="1">
                    <mxGeometry x="143" y="19" width="150" height="30" as="geometry"/>
                </mxCell>
                <mxCell id="150" value="DESILUDIDOS" style="text;align=center;html=1;verticalAlign=middle;whiteSpace=wrap;rounded=0;glass=0;fillColor=#f5f5f5;fontColor=#333333;strokeColor=#666666;fontStyle=1" vertex="1" parent="1">
                    <mxGeometry x="872" y="19" width="150" height="30" as="geometry"/>
                </mxCell>
                <mxCell id="2" value="&lt;b&gt;&lt;font color=&quot;#ff3333&quot;&gt;Registrar Venda&lt;/font&gt;&lt;/b&gt;" style="whiteSpace=wrap;html=1;rounded=1;strokeColor=#FAFAFA;" vertex="1" parent="1">
                    <mxGeometry x="158" y="53" width="120" height="60" as="geometry"/>
                </mxCell>
                <mxCell id="3" value="&lt;b&gt;&lt;font color=&quot;#ff3333&quot;&gt;Enviar Ticket&lt;br&gt;&lt;/font&gt;&lt;/b&gt;Canal de Backup" style="whiteSpace=wrap;html=1;rounded=1;strokeColor=#FAFAFA;" vertex="1" parent="1">
                    <mxGeometry x="8" y="153" width="120" height="60" as="geometry"/>
                </mxCell>
                <mxCell id="4" value="" style="edgeStyle=none;html=1;strokeColor=#FAFAFA;" edge="1" parent="1" source="2" target="3">
                    <mxGeometry relative="1" as="geometry"/>
                </mxCell>
                <mxCell id="6" value="&lt;b&gt;&lt;font color=&quot;#ff3333&quot;&gt;Enviar Ticket&lt;br&gt;&lt;/font&gt;&lt;/b&gt;Equipe de Produção" style="whiteSpace=wrap;html=1;rounded=1;strokeColor=#FAFAFA;" vertex="1" parent="1">
                    <mxGeometry x="158" y="153" width="120" height="60" as="geometry"/>
                </mxCell>
                <mxCell id="7" value="" style="edgeStyle=none;html=1;fontColor=#FF3333;strokeColor=#FAFAFA;" edge="1" parent="1" source="2" target="6">
                    <mxGeometry relative="1" as="geometry"/>
                </mxCell>
                <mxCell id="8" value="Produto Feito" style="rounded=1;whiteSpace=wrap;html=1;strokeColor=#FAFAFA;" vertex="1" parent="1">
                    <mxGeometry x="158" y="253" width="120" height="60" as="geometry"/>
                </mxCell>
                <mxCell id="9" value="" style="edgeStyle=none;html=1;fontColor=#FF3333;strokeColor=#FAFAFA;" edge="1" parent="1" source="6" target="8">
                    <mxGeometry relative="1" as="geometry"/>
                </mxCell>
                <mxCell id="10" value="&lt;b&gt;&lt;font color=&quot;#66ff66&quot;&gt;Botão&lt;br&gt;&lt;/font&gt;&lt;/b&gt;Produto Finalizado" style="rounded=1;whiteSpace=wrap;html=1;strokeColor=#FAFAFA;" vertex="1" parent="1">
                    <mxGeometry x="158" y="353" width="120" height="60" as="geometry"/>
                </mxCell>
                <mxCell id="11" value="" style="edgeStyle=none;html=1;fontColor=#FF3333;strokeColor=#FAFAFA;" edge="1" parent="1" source="8" target="10">
                    <mxGeometry relative="1" as="geometry"/>
                </mxCell>
                <mxCell id="14" value="&lt;b&gt;&lt;font color=&quot;#ff3333&quot;&gt;Enviar Ticket&lt;br&gt;&lt;/font&gt;&lt;/b&gt;Equipe de Envio" style="whiteSpace=wrap;html=1;glass=0;rounded=1;strokeColor=#FAFAFA;" vertex="1" parent="1">
                    <mxGeometry x="158" y="463" width="120" height="60" as="geometry"/>
                </mxCell>
                <mxCell id="16" value="" style="edgeStyle=none;html=1;fontColor=#66FF66;strokeColor=#FAFAFA;" edge="1" parent="1" source="10" target="14">
                    <mxGeometry relative="1" as="geometry"/>
                </mxCell>
                <mxCell id="18" value="Produto Enviado" style="rounded=1;whiteSpace=wrap;html=1;strokeColor=#FAFAFA;" vertex="1" parent="1">
                    <mxGeometry x="158" y="573" width="120" height="60" as="geometry"/>
                </mxCell>
                <mxCell id="20" value="" style="edgeStyle=none;html=1;fontColor=#66FF66;strokeColor=#FAFAFA;" edge="1" parent="1" source="14" target="18">
                    <mxGeometry relative="1" as="geometry"/>
                </mxCell>
                <mxCell id="153" value="" style="edgeStyle=none;html=1;strokeColor=#FAFAFA;fontColor=#33FF33;" edge="1" parent="1" source="19" target="152">
                    <mxGeometry relative="1" as="geometry"/>
                </mxCell>
                <mxCell id="19" value="&lt;b&gt;&lt;font color=&quot;#66ff66&quot;&gt;Botão&lt;br&gt;&lt;/font&gt;&lt;/b&gt;Produto Enviado" style="rounded=1;whiteSpace=wrap;html=1;strokeColor=#FAFAFA;" vertex="1" parent="1">
                    <mxGeometry x="158" y="683" width="120" height="60" as="geometry"/>
                </mxCell>
                <mxCell id="21" value="" style="edgeStyle=none;html=1;fontColor=#66FF66;strokeColor=#FAFAFA;" edge="1" parent="1" source="18" target="19">
                    <mxGeometry relative="1" as="geometry"/>
                </mxCell>
                <mxCell id="22" value="&lt;b&gt;&lt;font color=&quot;#ff3333&quot;&gt;Apagar Ticket&lt;/font&gt;&lt;/b&gt;" style="rounded=1;whiteSpace=wrap;html=1;strokeColor=#FAFAFA;" vertex="1" parent="1">
                    <mxGeometry x="328" y="353" width="120" height="60" as="geometry"/>
                </mxCell>
                <mxCell id="23" value="" style="edgeStyle=none;html=1;fontColor=#66FF66;strokeColor=#FAFAFA;" edge="1" parent="1" source="10" target="22">
                    <mxGeometry relative="1" as="geometry"/>
                </mxCell>
                <mxCell id="24" value="&lt;b&gt;&lt;font color=&quot;#ff3333&quot;&gt;Apagar Ticket&lt;/font&gt;&lt;/b&gt;" style="rounded=1;whiteSpace=wrap;html=1;strokeColor=#FAFAFA;" vertex="1" parent="1">
                    <mxGeometry x="328" y="683" width="120" height="60" as="geometry"/>
                </mxCell>
                <mxCell id="25" value="" style="edgeStyle=none;html=1;fontColor=#FF3333;strokeColor=#FAFAFA;" edge="1" parent="1" source="19" target="24">
                    <mxGeometry relative="1" as="geometry"/>
                </mxCell>
                <mxCell id="152" value="&lt;b&gt;&lt;font color=&quot;#ff3333&quot;&gt;Enviar Ticket&lt;br&gt;&lt;/font&gt;&lt;/b&gt;Canal de Produtos Enviados" style="whiteSpace=wrap;html=1;glass=0;rounded=1;strokeColor=#FAFAFA;" vertex="1" parent="1">
                    <mxGeometry x="158" y="793" width="120" height="60" as="geometry"/>
                </mxCell>
                <mxCell id="154" value="&lt;b&gt;&lt;font color=&quot;#ff3333&quot;&gt;Enviar Ticket&lt;br&gt;&lt;/font&gt;&lt;/b&gt;Canal de Produtos Enviados" style="whiteSpace=wrap;html=1;glass=0;rounded=1;strokeColor=#FAFAFA;" vertex="1" parent="1">
                    <mxGeometry x="964" y="990" width="120" height="60" as="geometry"/>
                </mxCell>
                <mxCell id="81" value="&lt;b&gt;&lt;font color=&quot;#ff3333&quot;&gt;Registrar Venda&lt;/font&gt;&lt;/b&gt;" style="whiteSpace=wrap;html=1;rounded=1;strokeColor=#FAFAFA;" vertex="1" parent="1">
                    <mxGeometry x="887" y="53" width="120" height="60" as="geometry"/>
                </mxCell>
                <mxCell id="82" value="&lt;b&gt;&lt;font color=&quot;#ff3333&quot;&gt;Enviar Ticket&lt;br&gt;&lt;/font&gt;&lt;/b&gt;Canal de Backup" style="whiteSpace=wrap;html=1;rounded=1;strokeColor=#FAFAFA;" vertex="1" parent="1">
                    <mxGeometry x="737" y="153" width="120" height="60" as="geometry"/>
                </mxCell>
                <mxCell id="118" value="&lt;b&gt;&lt;font color=&quot;#ff3333&quot;&gt;Enviar Ticket&lt;br&gt;&lt;/font&gt;&lt;/b&gt;Canal de Vendas" style="whiteSpace=wrap;html=1;rounded=1;strokeColor=#FAFAFA;" vertex="1" parent="1">
                    <mxGeometry x="887" y="153" width="120" height="60" as="geometry"/>
                </mxCell>
                <mxCell id="119" value="&lt;b&gt;&lt;font color=&quot;#66ff66&quot;&gt;Botão&lt;br&gt;&lt;/font&gt;&lt;/b&gt;Produto Enviado" style="rounded=1;whiteSpace=wrap;html=1;strokeColor=#FAFAFA;" vertex="1" parent="1">
                    <mxGeometry x="813.5" y="250" width="120" height="60" as="geometry"/>
                </mxCell>
                <mxCell id="120" value="&lt;b&gt;&lt;font color=&quot;#66ff66&quot;&gt;Botão&lt;br&gt;&lt;/font&gt;&lt;/b&gt;Produto Não Enviado" style="rounded=1;whiteSpace=wrap;html=1;strokeColor=#FAFAFA;" vertex="1" parent="1">
                    <mxGeometry x="960.5" y="250" width="120" height="60" as="geometry"/>
                </mxCell>
                <mxCell id="144" value="&lt;b&gt;&lt;font color=&quot;#ff3333&quot;&gt;Apagar Ticket&lt;/font&gt;&lt;/b&gt;" style="rounded=1;whiteSpace=wrap;html=1;strokeColor=#FAFAFA;" vertex="1" parent="1">
                    <mxGeometry x="664" y="250" width="120" height="60" as="geometry"/>
                </mxCell>
                <mxCell id="146" value="" style="group" vertex="1" connectable="0" parent="1">
                    <mxGeometry x="964" y="350" width="290" height="590" as="geometry"/>
                </mxCell>
                <mxCell id="84" value="&lt;b&gt;&lt;font color=&quot;#ff3333&quot;&gt;Enviar Ticket&lt;br&gt;&lt;/font&gt;&lt;/b&gt;Equipe de Produção" style="whiteSpace=wrap;html=1;rounded=1;strokeColor=#FAFAFA;movable=1;resizable=1;rotatable=1;deletable=1;editable=1;connectable=1;" vertex="1" parent="146">
                    <mxGeometry width="120" height="60" as="geometry"/>
                </mxCell>
                <mxCell id="86" value="Produto Feito" style="rounded=1;whiteSpace=wrap;html=1;strokeColor=#FAFAFA;" vertex="1" parent="146">
                    <mxGeometry y="100" width="120" height="60" as="geometry"/>
                </mxCell>
                <mxCell id="88" value="&lt;b&gt;&lt;font color=&quot;#66ff66&quot;&gt;Botão&lt;br&gt;&lt;/font&gt;&lt;/b&gt;Produto Finalizado" style="rounded=1;whiteSpace=wrap;html=1;strokeColor=#FAFAFA;" vertex="1" parent="146">
                    <mxGeometry y="200" width="120" height="60" as="geometry"/>
                </mxCell>
                <mxCell id="90" value="&lt;b&gt;&lt;font color=&quot;#ff3333&quot;&gt;Enviar Ticket&lt;br&gt;&lt;/font&gt;&lt;/b&gt;Equipe de Envio" style="whiteSpace=wrap;html=1;glass=0;rounded=1;strokeColor=#FAFAFA;" vertex="1" parent="146">
                    <mxGeometry y="310" width="120" height="60" as="geometry"/>
                </mxCell>
                <mxCell id="92" value="Produto Enviado" style="rounded=1;whiteSpace=wrap;html=1;strokeColor=#FAFAFA;" vertex="1" parent="146">
                    <mxGeometry y="420" width="120" height="60" as="geometry"/>
                </mxCell>
                <mxCell id="94" value="&lt;b&gt;&lt;font color=&quot;#66ff66&quot;&gt;Botão&lt;br&gt;&lt;/font&gt;&lt;/b&gt;Produto Enviado" style="rounded=1;whiteSpace=wrap;html=1;strokeColor=#FAFAFA;" vertex="1" parent="146">
                    <mxGeometry y="530" width="120" height="60" as="geometry"/>
                </mxCell>
                <mxCell id="96" value="&lt;b&gt;&lt;font color=&quot;#ff3333&quot;&gt;Apagar Ticket&lt;/font&gt;&lt;/b&gt;" style="rounded=1;whiteSpace=wrap;html=1;strokeColor=#FAFAFA;" vertex="1" parent="146">
                    <mxGeometry x="170" y="200" width="120" height="60" as="geometry"/>
                </mxCell>
                <mxCell id="98" value="&lt;b&gt;&lt;font color=&quot;#ff3333&quot;&gt;Apagar Ticket&lt;/font&gt;&lt;/b&gt;" style="rounded=1;whiteSpace=wrap;html=1;strokeColor=#FAFAFA;" vertex="1" parent="146">
                    <mxGeometry x="170" y="530" width="120" height="60" as="geometry"/>
                </mxCell>
                <mxCell id="87" value="" style="edgeStyle=none;html=1;fontColor=#FF3333;strokeColor=#FAFAFA;" edge="1" parent="146" source="84" target="86">
                    <mxGeometry relative="1" as="geometry"/>
                </mxCell>
                <mxCell id="89" value="" style="edgeStyle=none;html=1;fontColor=#FF3333;strokeColor=#FAFAFA;" edge="1" parent="146" source="86" target="88">
                    <mxGeometry relative="1" as="geometry"/>
                </mxCell>
                <mxCell id="91" value="" style="edgeStyle=none;html=1;fontColor=#66FF66;strokeColor=#FAFAFA;" edge="1" parent="146" source="88" target="90">
                    <mxGeometry relative="1" as="geometry"/>
                </mxCell>
                <mxCell id="93" value="" style="edgeStyle=none;html=1;fontColor=#66FF66;strokeColor=#FAFAFA;" edge="1" parent="146" source="90" target="92">
                    <mxGeometry relative="1" as="geometry"/>
                </mxCell>
                <mxCell id="95" value="" style="edgeStyle=none;html=1;fontColor=#66FF66;strokeColor=#FAFAFA;" edge="1" parent="146" source="92" target="94">
                    <mxGeometry relative="1" as="geometry"/>
                </mxCell>
                <mxCell id="97" value="" style="edgeStyle=none;html=1;fontColor=#66FF66;strokeColor=#FAFAFA;" edge="1" parent="146" source="88" target="96">
                    <mxGeometry relative="1" as="geometry"/>
                </mxCell>
                <mxCell id="99" value="" style="edgeStyle=none;html=1;fontColor=#FF3333;strokeColor=#FAFAFA;" edge="1" parent="146" source="94" target="98">
                    <mxGeometry relative="1" as="geometry"/>
                </mxCell>
                <mxCell id="83" value="" style="edgeStyle=none;html=1;strokeColor=#FAFAFA;" edge="1" parent="1" source="81" target="82">
                    <mxGeometry relative="1" as="geometry"/>
                </mxCell>
                <mxCell id="148" value="" style="edgeStyle=none;html=1;strokeColor=#FAFAFA;fontColor=#33FF33;" edge="1" parent="1" source="81" target="118">
                    <mxGeometry relative="1" as="geometry"/>
                </mxCell>
                <mxCell id="123" style="edgeStyle=none;html=1;entryX=0.5;entryY=0;entryDx=0;entryDy=0;strokeColor=#FAFAFA;fontColor=#33FF33;" edge="1" parent="1" source="118" target="119">
                    <mxGeometry relative="1" as="geometry"/>
                </mxCell>
                <mxCell id="121" value="" style="edgeStyle=none;html=1;strokeColor=#FAFAFA;fontColor=#33FF33;entryX=0.5;entryY=0;entryDx=0;entryDy=0;" edge="1" parent="1" source="118" target="120">
                    <mxGeometry relative="1" as="geometry"/>
                </mxCell>
                <mxCell id="145" value="" style="edgeStyle=none;html=1;strokeColor=#FAFAFA;fontColor=#33FF33;" edge="1" parent="1" source="119" target="144">
                    <mxGeometry relative="1" as="geometry"/>
                </mxCell>
                <mxCell id="147" value="" style="edgeStyle=none;html=1;strokeColor=#FAFAFA;fontColor=#33FF33;entryX=0.5;entryY=0;entryDx=0;entryDy=0;" edge="1" parent="1" source="120" target="84">
                    <mxGeometry relative="1" as="geometry"/>
                </mxCell>
                <mxCell id="155" value="" style="edgeStyle=none;html=1;strokeColor=#FAFAFA;fontColor=#33FF33;" edge="1" parent="1" source="94" target="154">
                    <mxGeometry relative="1" as="geometry"/>
                </mxCell>
            </root>
        </mxGraphModel>
    </diagram>
</mxfile>